<mxfile host="app.diagrams.net" agent="Mozilla/5.0 (Windows NT 10.0; Win64; x64) AppleWebKit/537.36 (KHTML, like Gecko) Chrome/133.0.0.0 Safari/537.36 OPR/118.0.0.0" version="27.0.3">
  <diagram name="Page-1" id="uG_L2PP7e3jB945gAJbq">
    <mxGraphModel dx="1430" dy="884" grid="1" gridSize="10" guides="1" tooltips="1" connect="1" arrows="1" fold="1" page="1" pageScale="1" pageWidth="850" pageHeight="1100" math="0" shadow="0">
      <root>
        <mxCell id="0" />
        <mxCell id="1" parent="0" />
        <mxCell id="q2Nk8L6CIGEX0hvedj8e-16" value="&lt;pre style=&quot;font-family: var(--ds-font-family-code); overflow: auto; padding: calc(var(--ds-md-zoom)*8px)calc(var(--ds-md-zoom)*12px); text-wrap-mode: wrap; word-break: break-all; font-size: 12.573px; font-weight: 400; text-align: start; margin-top: 0px !important; margin-bottom: 0px !important;&quot;&gt;GUI &lt;/pre&gt;" style="swimlane;fontStyle=1;align=center;verticalAlign=top;childLayout=stackLayout;horizontal=1;startSize=26;horizontalStack=0;resizeParent=1;resizeParentMax=0;resizeLast=0;collapsible=1;marginBottom=0;whiteSpace=wrap;html=1;" vertex="1" parent="1">
          <mxGeometry x="345" y="30" width="160" height="790" as="geometry" />
        </mxCell>
        <mxCell id="q2Nk8L6CIGEX0hvedj8e-17" value="&lt;pre style=&quot;overflow: auto; padding: calc(var(--ds-md-zoom)*8px)calc(var(--ds-md-zoom)*12px); word-break: break-all; margin-top: 0px !important; margin-bottom: 0px !important;&quot;&gt;&lt;font face=&quot;Helvetica&quot;&gt;&lt;span style=&quot;font-size: 12.573px; text-wrap-mode: wrap;&quot;&gt;- rand: Random&lt;br/&gt;- tempC: int&lt;br/&gt;- dHitter: boolean&lt;br/&gt;- Cards: ArrayList&amp;lt;Card&amp;gt;&lt;br/&gt;- Log: ArrayList&amp;lt;Message&amp;gt;&lt;br/&gt;- pCards: ArrayList&amp;lt;Card&amp;gt;&lt;br/&gt;- dCards: ArrayList&amp;lt;Card&amp;gt;&lt;br/&gt;- fontCard: Font&lt;br/&gt;- fontQuest: Font&lt;br/&gt;- fontButton: Font&lt;br/&gt;- fontLog: Font&lt;br/&gt;- cDealer: Color&lt;br/&gt;- cPlayer: Color&lt;br/&gt;- questHitStay: String&lt;br/&gt;- questPlayMore: String&lt;br/&gt;- colorBackground: Color&lt;br/&gt;- colorButton: Color&lt;br/&gt;- bHit: JButton&lt;br/&gt;- bStay: JButton&lt;br/&gt;- bYes: JButton&lt;br/&gt;- bNo: JButton&lt;br/&gt;- sW: int&lt;br/&gt;- sH: int&lt;br/&gt;- aW: int&lt;br/&gt;- aH: int&lt;br/&gt;- gridX: int&lt;br/&gt;- gridY: int&lt;br/&gt;- gridW: int&lt;br/&gt;- gridH: int&lt;br/&gt;- spacing: int&lt;br/&gt;- rounding: int&lt;br/&gt;- tCardW: int&lt;br/&gt;- tCardH: int&lt;br/&gt;- cardW: int&lt;br/&gt;- cardH: int&lt;br/&gt;- hit_stay_q: boolean&lt;br/&gt;- dealer_turn: boolean&lt;br/&gt;- play_more_q: boolean&lt;br/&gt;- pMinTotal: int&lt;br/&gt;- pMaxTotal: int&lt;br/&gt;- dMinTotal: int&lt;br/&gt;- dMaxTotal: int&lt;br/&gt;- polyX: int[]&lt;br/&gt;- polyY: int[]&lt;/span&gt;&lt;/font&gt;&lt;font face=&quot;var(--ds-font-family-code)&quot;&gt;&lt;span style=&quot;font-size: 12.573px; text-wrap-mode: wrap;&quot;&gt;&lt;/span&gt;&lt;/font&gt;&lt;/pre&gt;" style="text;strokeColor=none;fillColor=none;align=left;verticalAlign=top;spacingLeft=4;spacingRight=4;overflow=hidden;rotatable=0;points=[[0,0.5],[1,0.5]];portConstraint=eastwest;whiteSpace=wrap;html=1;" vertex="1" parent="q2Nk8L6CIGEX0hvedj8e-16">
          <mxGeometry y="26" width="160" height="694" as="geometry" />
        </mxCell>
        <mxCell id="q2Nk8L6CIGEX0hvedj8e-18" value="" style="line;strokeWidth=1;fillColor=none;align=left;verticalAlign=middle;spacingTop=-1;spacingLeft=3;spacingRight=3;rotatable=0;labelPosition=right;points=[];portConstraint=eastwest;strokeColor=inherit;" vertex="1" parent="q2Nk8L6CIGEX0hvedj8e-16">
          <mxGeometry y="720" width="160" height="8" as="geometry" />
        </mxCell>
        <mxCell id="q2Nk8L6CIGEX0hvedj8e-19" value="&lt;div&gt;+ totalsChecker()&amp;nbsp;&amp;nbsp;&lt;/div&gt;&lt;div&gt;+ setWinner()&amp;nbsp; &amp;nbsp; &amp;nbsp;&amp;nbsp;&lt;/div&gt;&lt;div&gt;+ dealerHitStay()&amp;nbsp;&amp;nbsp;&lt;/div&gt;&lt;div&gt;+ refresher()&amp;nbsp;&lt;/div&gt;" style="text;strokeColor=none;fillColor=none;align=left;verticalAlign=top;spacingLeft=4;spacingRight=4;overflow=hidden;rotatable=0;points=[[0,0.5],[1,0.5]];portConstraint=eastwest;whiteSpace=wrap;html=1;" vertex="1" parent="q2Nk8L6CIGEX0hvedj8e-16">
          <mxGeometry y="728" width="160" height="62" as="geometry" />
        </mxCell>
        <mxCell id="q2Nk8L6CIGEX0hvedj8e-20" value="&lt;pre style=&quot;font-family: var(--ds-font-family-code); overflow: auto; padding: calc(var(--ds-md-zoom)*8px)calc(var(--ds-md-zoom)*12px); text-wrap-mode: wrap; word-break: break-all; font-size: 12.573px; font-weight: 400; text-align: start; margin-top: 0px !important; margin-bottom: 0px !important;&quot;&gt;&lt;pre style=&quot;font-family: var(--ds-font-family-code); overflow: auto; padding: calc(var(--ds-md-zoom)*8px)calc(var(--ds-md-zoom)*12px); text-wrap-mode: wrap; word-break: break-all; margin-top: 0px !important; margin-bottom: 0px !important;&quot;&gt;Main&lt;/pre&gt;&lt;/pre&gt;" style="swimlane;fontStyle=1;align=center;verticalAlign=top;childLayout=stackLayout;horizontal=1;startSize=26;horizontalStack=0;resizeParent=1;resizeParentMax=0;resizeLast=0;collapsible=1;marginBottom=0;whiteSpace=wrap;html=1;" vertex="1" parent="1">
          <mxGeometry x="40" y="30" width="160" height="190" as="geometry" />
        </mxCell>
        <mxCell id="q2Nk8L6CIGEX0hvedj8e-21" value="&lt;pre style=&quot;font-family: var(--ds-font-family-code); overflow: auto; padding: calc(var(--ds-md-zoom)*8px)calc(var(--ds-md-zoom)*12px); text-wrap-mode: wrap; word-break: break-all; font-size: 12.573px; margin-top: 0px !important; margin-bottom: 0px !important;&quot;&gt;- terminator: bool &lt;br&gt;- pWins: int       &lt;br&gt;- dWins: int       &lt;br&gt;- Hz: int          &lt;br&gt;- xTime: long      &lt;br&gt;- gui: GUI &lt;/pre&gt;" style="text;strokeColor=none;fillColor=none;align=left;verticalAlign=top;spacingLeft=4;spacingRight=4;overflow=hidden;rotatable=0;points=[[0,0.5],[1,0.5]];portConstraint=eastwest;whiteSpace=wrap;html=1;" vertex="1" parent="q2Nk8L6CIGEX0hvedj8e-20">
          <mxGeometry y="26" width="160" height="114" as="geometry" />
        </mxCell>
        <mxCell id="q2Nk8L6CIGEX0hvedj8e-22" value="" style="line;strokeWidth=1;fillColor=none;align=left;verticalAlign=middle;spacingTop=-1;spacingLeft=3;spacingRight=3;rotatable=0;labelPosition=right;points=[];portConstraint=eastwest;strokeColor=inherit;" vertex="1" parent="q2Nk8L6CIGEX0hvedj8e-20">
          <mxGeometry y="140" width="160" height="8" as="geometry" />
        </mxCell>
        <mxCell id="q2Nk8L6CIGEX0hvedj8e-23" value="&lt;pre style=&quot;font-family: var(--ds-font-family-code); overflow: auto; padding: calc(var(--ds-md-zoom)*8px)calc(var(--ds-md-zoom)*12px); text-wrap-mode: wrap; word-break: break-all; font-size: 12.573px; margin-top: 0px !important; margin-bottom: 0px !important;&quot;&gt;+ main(args)       &lt;br&gt;+ run()  &lt;/pre&gt;" style="text;strokeColor=none;fillColor=none;align=left;verticalAlign=top;spacingLeft=4;spacingRight=4;overflow=hidden;rotatable=0;points=[[0,0.5],[1,0.5]];portConstraint=eastwest;whiteSpace=wrap;html=1;" vertex="1" parent="q2Nk8L6CIGEX0hvedj8e-20">
          <mxGeometry y="148" width="160" height="42" as="geometry" />
        </mxCell>
        <mxCell id="q2Nk8L6CIGEX0hvedj8e-24" value="&lt;pre style=&quot;font-family: var(--ds-font-family-code); overflow: auto; padding: calc(var(--ds-md-zoom)*8px)calc(var(--ds-md-zoom)*12px); text-wrap-mode: wrap; word-break: break-all; font-size: 12.573px; font-weight: 400; text-align: start; margin-top: 0px !important; margin-bottom: 0px !important;&quot;&gt;Card&lt;/pre&gt;" style="swimlane;fontStyle=1;align=center;verticalAlign=top;childLayout=stackLayout;horizontal=1;startSize=26;horizontalStack=0;resizeParent=1;resizeParentMax=0;resizeLast=0;collapsible=1;marginBottom=0;whiteSpace=wrap;html=1;" vertex="1" parent="1">
          <mxGeometry x="640" y="30" width="160" height="190" as="geometry" />
        </mxCell>
        <mxCell id="q2Nk8L6CIGEX0hvedj8e-25" value="&lt;pre style=&quot;font-family: var(--ds-font-family-code); overflow: auto; padding: calc(var(--ds-md-zoom)*8px)calc(var(--ds-md-zoom)*12px); text-wrap-mode: wrap; word-break: break-all; font-size: 12.573px; margin-top: 0px !important; margin-bottom: 0px !important;&quot;&gt;-name: String    &lt;br&gt;- value: int      &lt;br&gt;- shape: String    &lt;br&gt;- used: boolean    &lt;br&gt;- id: int          &lt;br&gt;- symbol: String&lt;/pre&gt;" style="text;strokeColor=none;fillColor=none;align=left;verticalAlign=top;spacingLeft=4;spacingRight=4;overflow=hidden;rotatable=0;points=[[0,0.5],[1,0.5]];portConstraint=eastwest;whiteSpace=wrap;html=1;" vertex="1" parent="q2Nk8L6CIGEX0hvedj8e-24">
          <mxGeometry y="26" width="160" height="104" as="geometry" />
        </mxCell>
        <mxCell id="q2Nk8L6CIGEX0hvedj8e-26" value="" style="line;strokeWidth=1;fillColor=none;align=left;verticalAlign=middle;spacingTop=-1;spacingLeft=3;spacingRight=3;rotatable=0;labelPosition=right;points=[];portConstraint=eastwest;strokeColor=inherit;" vertex="1" parent="q2Nk8L6CIGEX0hvedj8e-24">
          <mxGeometry y="130" width="160" height="8" as="geometry" />
        </mxCell>
        <mxCell id="q2Nk8L6CIGEX0hvedj8e-27" value="&lt;pre style=&quot;font-family: var(--ds-font-family-code); overflow: auto; padding: calc(var(--ds-md-zoom)*8px)calc(var(--ds-md-zoom)*12px); text-wrap-mode: wrap; word-break: break-all; font-size: 12.573px; margin-top: 0px !important; margin-bottom: 0px !important;&quot;&gt;+ Card(n,s,z)      &lt;br&gt;+ setUsed()        &lt;br&gt;+ setNotUsed()&lt;/pre&gt;" style="text;strokeColor=none;fillColor=none;align=left;verticalAlign=top;spacingLeft=4;spacingRight=4;overflow=hidden;rotatable=0;points=[[0,0.5],[1,0.5]];portConstraint=eastwest;whiteSpace=wrap;html=1;" vertex="1" parent="q2Nk8L6CIGEX0hvedj8e-24">
          <mxGeometry y="138" width="160" height="52" as="geometry" />
        </mxCell>
        <mxCell id="q2Nk8L6CIGEX0hvedj8e-28" value="&lt;pre style=&quot;font-family: var(--ds-font-family-code); overflow: auto; padding: calc(var(--ds-md-zoom)*8px)calc(var(--ds-md-zoom)*12px); text-wrap-mode: wrap; word-break: break-all; font-size: 12.573px; text-align: start; margin-top: 0px !important; margin-bottom: 0px !important;&quot;&gt;Board&lt;/pre&gt;" style="swimlane;fontStyle=0;childLayout=stackLayout;horizontal=1;startSize=26;fillColor=none;horizontalStack=0;resizeParent=1;resizeParentMax=0;resizeLast=0;collapsible=1;marginBottom=0;whiteSpace=wrap;html=1;" vertex="1" parent="1">
          <mxGeometry x="100" y="857" width="140" height="52" as="geometry" />
        </mxCell>
        <mxCell id="q2Nk8L6CIGEX0hvedj8e-31" value="&lt;pre style=&quot;font-family: var(--ds-font-family-code); overflow: auto; padding: calc(var(--ds-md-zoom)*8px)calc(var(--ds-md-zoom)*12px); text-wrap-mode: wrap; word-break: break-all; font-size: 12.573px; margin-top: 0px !important; margin-bottom: 0px !important;&quot;&gt;+ paintComponent()&lt;/pre&gt;" style="text;strokeColor=none;fillColor=none;align=left;verticalAlign=top;spacingLeft=4;spacingRight=4;overflow=hidden;rotatable=0;points=[[0,0.5],[1,0.5]];portConstraint=eastwest;whiteSpace=wrap;html=1;" vertex="1" parent="q2Nk8L6CIGEX0hvedj8e-28">
          <mxGeometry y="26" width="140" height="26" as="geometry" />
        </mxCell>
        <mxCell id="q2Nk8L6CIGEX0hvedj8e-32" value="&lt;pre style=&quot;font-family: var(--ds-font-family-code); overflow: auto; padding: calc(var(--ds-md-zoom)*8px)calc(var(--ds-md-zoom)*12px); text-wrap-mode: wrap; word-break: break-all; font-size: 12.573px; text-align: start; margin-top: 0px !important; margin-bottom: 0px !important;&quot;&gt;Move&lt;/pre&gt;" style="swimlane;fontStyle=0;childLayout=stackLayout;horizontal=1;startSize=26;fillColor=none;horizontalStack=0;resizeParent=1;resizeParentMax=0;resizeLast=0;collapsible=1;marginBottom=0;whiteSpace=wrap;html=1;" vertex="1" parent="1">
          <mxGeometry x="580" y="857" width="140" height="78" as="geometry" />
        </mxCell>
        <mxCell id="q2Nk8L6CIGEX0hvedj8e-33" value="+&amp;nbsp;&lt;span style=&quot;font-family: var(--ds-font-family-code); font-size: 12.573px; background-color: transparent; color: light-dark(rgb(0, 0, 0), rgb(255, 255, 255));&quot;&gt;mouseDragged()&lt;/span&gt;" style="text;strokeColor=none;fillColor=none;align=left;verticalAlign=top;spacingLeft=4;spacingRight=4;overflow=hidden;rotatable=0;points=[[0,0.5],[1,0.5]];portConstraint=eastwest;whiteSpace=wrap;html=1;" vertex="1" parent="q2Nk8L6CIGEX0hvedj8e-32">
          <mxGeometry y="26" width="140" height="26" as="geometry" />
        </mxCell>
        <mxCell id="q2Nk8L6CIGEX0hvedj8e-34" value="&lt;pre style=&quot;font-family: var(--ds-font-family-code); overflow: auto; padding: calc(var(--ds-md-zoom)*8px)calc(var(--ds-md-zoom)*12px); text-wrap-mode: wrap; word-break: break-all; font-size: 12.573px; margin-top: 0px !important; margin-bottom: 0px !important;&quot;&gt;+ mouseMoved()&lt;/pre&gt;" style="text;strokeColor=none;fillColor=none;align=left;verticalAlign=top;spacingLeft=4;spacingRight=4;overflow=hidden;rotatable=0;points=[[0,0.5],[1,0.5]];portConstraint=eastwest;whiteSpace=wrap;html=1;" vertex="1" parent="q2Nk8L6CIGEX0hvedj8e-32">
          <mxGeometry y="52" width="140" height="26" as="geometry" />
        </mxCell>
        <mxCell id="q2Nk8L6CIGEX0hvedj8e-36" value="&lt;pre style=&quot;font-family: var(--ds-font-family-code); overflow: auto; padding: calc(var(--ds-md-zoom)*8px)calc(var(--ds-md-zoom)*12px); text-wrap-mode: wrap; word-break: break-all; font-size: 12.573px; text-align: start; margin-top: 0px !important; margin-bottom: 0px !important;&quot;&gt;Click&lt;/pre&gt;" style="swimlane;fontStyle=0;childLayout=stackLayout;horizontal=1;startSize=26;fillColor=none;horizontalStack=0;resizeParent=1;resizeParentMax=0;resizeLast=0;collapsible=1;marginBottom=0;whiteSpace=wrap;html=1;" vertex="1" parent="1">
          <mxGeometry x="580" y="1000" width="140" height="110" as="geometry" />
        </mxCell>
        <mxCell id="q2Nk8L6CIGEX0hvedj8e-38" value="+ mouseClicked()&lt;br&gt;+ mouseEntered()&lt;br&gt;+ mouseExited()&lt;br&gt;+ mousePressed()&lt;br&gt;+ mouseReleased()" style="text;strokeColor=none;fillColor=none;align=left;verticalAlign=top;spacingLeft=4;spacingRight=4;overflow=hidden;rotatable=0;points=[[0,0.5],[1,0.5]];portConstraint=eastwest;whiteSpace=wrap;html=1;" vertex="1" parent="q2Nk8L6CIGEX0hvedj8e-36">
          <mxGeometry y="26" width="140" height="84" as="geometry" />
        </mxCell>
        <mxCell id="q2Nk8L6CIGEX0hvedj8e-40" value="&lt;pre style=&quot;font-family: var(--ds-font-family-code); overflow: auto; padding: calc(var(--ds-md-zoom)*8px)calc(var(--ds-md-zoom)*12px); text-wrap-mode: wrap; word-break: break-all; font-size: 12.573px; text-align: start; margin-top: 0px !important; margin-bottom: 0px !important;&quot;&gt;ActHit&lt;/pre&gt;" style="swimlane;fontStyle=0;childLayout=stackLayout;horizontal=1;startSize=26;fillColor=none;horizontalStack=0;resizeParent=1;resizeParentMax=0;resizeLast=0;collapsible=1;marginBottom=0;whiteSpace=wrap;html=1;" vertex="1" parent="1">
          <mxGeometry x="580" y="1150" width="140" height="52" as="geometry" />
        </mxCell>
        <mxCell id="q2Nk8L6CIGEX0hvedj8e-42" value="+&amp;nbsp;&lt;span style=&quot;font-family: var(--ds-font-family-code); font-size: 12.573px; background-color: transparent; color: light-dark(rgb(0, 0, 0), rgb(255, 255, 255));&quot;&gt;actionPerformed()&lt;/span&gt;" style="text;strokeColor=none;fillColor=none;align=left;verticalAlign=top;spacingLeft=4;spacingRight=4;overflow=hidden;rotatable=0;points=[[0,0.5],[1,0.5]];portConstraint=eastwest;whiteSpace=wrap;html=1;" vertex="1" parent="q2Nk8L6CIGEX0hvedj8e-40">
          <mxGeometry y="26" width="140" height="26" as="geometry" />
        </mxCell>
        <mxCell id="q2Nk8L6CIGEX0hvedj8e-56" value="&lt;pre style=&quot;font-family: var(--ds-font-family-code); overflow: auto; padding: calc(var(--ds-md-zoom)*8px)calc(var(--ds-md-zoom)*12px); text-wrap-mode: wrap; word-break: break-all; font-size: 12.573px; text-align: start; margin-top: 0px !important; margin-bottom: 0px !important;&quot;&gt;ActStay&lt;/pre&gt;" style="swimlane;fontStyle=0;childLayout=stackLayout;horizontal=1;startSize=26;fillColor=none;horizontalStack=0;resizeParent=1;resizeParentMax=0;resizeLast=0;collapsible=1;marginBottom=0;whiteSpace=wrap;html=1;" vertex="1" parent="1">
          <mxGeometry x="580" y="1240" width="140" height="52" as="geometry" />
        </mxCell>
        <mxCell id="q2Nk8L6CIGEX0hvedj8e-57" value="+&amp;nbsp;&lt;span style=&quot;font-family: var(--ds-font-family-code); font-size: 12.573px; background-color: transparent; color: light-dark(rgb(0, 0, 0), rgb(255, 255, 255));&quot;&gt;actionPerformed()&lt;/span&gt;" style="text;strokeColor=none;fillColor=none;align=left;verticalAlign=top;spacingLeft=4;spacingRight=4;overflow=hidden;rotatable=0;points=[[0,0.5],[1,0.5]];portConstraint=eastwest;whiteSpace=wrap;html=1;" vertex="1" parent="q2Nk8L6CIGEX0hvedj8e-56">
          <mxGeometry y="26" width="140" height="26" as="geometry" />
        </mxCell>
        <mxCell id="q2Nk8L6CIGEX0hvedj8e-58" value="&lt;pre style=&quot;font-family: var(--ds-font-family-code); overflow: auto; padding: calc(var(--ds-md-zoom)*8px)calc(var(--ds-md-zoom)*12px); text-wrap-mode: wrap; word-break: break-all; font-size: 12.573px; text-align: start; margin-top: 0px !important; margin-bottom: 0px !important;&quot;&gt;ActNo&lt;/pre&gt;" style="swimlane;fontStyle=0;childLayout=stackLayout;horizontal=1;startSize=26;fillColor=none;horizontalStack=0;resizeParent=1;resizeParentMax=0;resizeLast=0;collapsible=1;marginBottom=0;whiteSpace=wrap;html=1;" vertex="1" parent="1">
          <mxGeometry x="580" y="1420" width="140" height="52" as="geometry" />
        </mxCell>
        <mxCell id="q2Nk8L6CIGEX0hvedj8e-59" value="+&amp;nbsp;&lt;span style=&quot;font-family: var(--ds-font-family-code); font-size: 12.573px; background-color: transparent; color: light-dark(rgb(0, 0, 0), rgb(255, 255, 255));&quot;&gt;actionPerformed()&lt;/span&gt;" style="text;strokeColor=none;fillColor=none;align=left;verticalAlign=top;spacingLeft=4;spacingRight=4;overflow=hidden;rotatable=0;points=[[0,0.5],[1,0.5]];portConstraint=eastwest;whiteSpace=wrap;html=1;" vertex="1" parent="q2Nk8L6CIGEX0hvedj8e-58">
          <mxGeometry y="26" width="140" height="26" as="geometry" />
        </mxCell>
        <mxCell id="q2Nk8L6CIGEX0hvedj8e-60" value="&lt;pre style=&quot;font-family: var(--ds-font-family-code); overflow: auto; padding: calc(var(--ds-md-zoom)*8px)calc(var(--ds-md-zoom)*12px); text-wrap-mode: wrap; word-break: break-all; font-size: 12.573px; text-align: start; margin-top: 0px !important; margin-bottom: 0px !important;&quot;&gt;ActYes&lt;/pre&gt;" style="swimlane;fontStyle=0;childLayout=stackLayout;horizontal=1;startSize=26;fillColor=none;horizontalStack=0;resizeParent=1;resizeParentMax=0;resizeLast=0;collapsible=1;marginBottom=0;whiteSpace=wrap;html=1;" vertex="1" parent="1">
          <mxGeometry x="580" y="1330" width="140" height="52" as="geometry" />
        </mxCell>
        <mxCell id="q2Nk8L6CIGEX0hvedj8e-61" value="+&amp;nbsp;&lt;span style=&quot;font-family: var(--ds-font-family-code); font-size: 12.573px; background-color: transparent; color: light-dark(rgb(0, 0, 0), rgb(255, 255, 255));&quot;&gt;actionPerformed()&lt;/span&gt;" style="text;strokeColor=none;fillColor=none;align=left;verticalAlign=top;spacingLeft=4;spacingRight=4;overflow=hidden;rotatable=0;points=[[0,0.5],[1,0.5]];portConstraint=eastwest;whiteSpace=wrap;html=1;" vertex="1" parent="q2Nk8L6CIGEX0hvedj8e-60">
          <mxGeometry y="26" width="140" height="26" as="geometry" />
        </mxCell>
      </root>
    </mxGraphModel>
  </diagram>
</mxfile>
